<svg xmlns="http://www.w3.org/2000/svg" width="96" height="96" viewBox="0 0 96 96"><g transform="translate(-544 -1203)"><circle cx="48" cy="48" r="48" transform="translate(544 1203)" fill="#e7f9fd"/><g transform="translate(-863 -4851)"><rect width="48" height="48" transform="translate(1431 6078)" fill="none"/><path d="M8.722,9.858A9.868,9.868,0,1,1,18.6,19.717,9.87,9.87,0,0,1,8.722,9.858Zm14.9,11.113a28.746,28.746,0,0,1-3.469,1.274l-.392,1.019a1.7,1.7,0,0,0-.137,1.117l2.332,13.484a2.23,2.23,0,0,1-.314,1.607L18.8,43.981l-2.842-4.508a2.29,2.29,0,0,1-.314-1.607l2.332-13.484a1.7,1.7,0,0,0-.137-1.117l-.392-1.019a27.491,27.491,0,0,1-3.469-1.254C2.156,22.186,0,27.988,0,34.279v5.939a22.073,22.073,0,0,0,6.468,3.057V35.749l1.294,7.9A43.71,43.71,0,0,0,18.835,45a44.444,44.444,0,0,0,11.034-1.333l1.294-7.9v7.546A23.522,23.522,0,0,0,37.18,40.59V34.3C37.18,27.988,35.651,22.147,23.617,20.971Z" transform="translate(1436.25 6079.5)" fill="#242342"/></g></g></svg>