<svg xmlns="http://www.w3.org/2000/svg" width="20" height="20" viewBox="0 0 20 20"><g transform="translate(0)"><path d="M0,0H20V20H0Z" transform="translate(0)" fill="none"/><path d="M4821.17,11191.994a1.171,1.171,0,0,1-1.171-1.171v-14.173a1.168,1.168,0,0,1,1.171-1.167h2v1.987a1.307,1.307,0,0,0,1.31,1.309h.254a1.308,1.308,0,0,0,1.311-1.309v-1.987h6.374v1.959a1.313,1.313,0,0,0,1.314,1.31h.253a1.155,1.155,0,0,0,1.311-1.113v-2.155h1.86a1.169,1.169,0,0,1,1.173,1.167v14.173a1.172,1.172,0,0,1-1.173,1.171Zm0-1.157h15.99v-10.716h-15.99Zm3.313-12.646a.724.724,0,0,1-.72-.72v-2.736a.723.723,0,0,1,.72-.72h.254a.722.722,0,0,1,.72.72v2.736a.724.724,0,0,1-.72.72Zm9.252-.018a.715.715,0,0,1-.72-.716v-2.739a.717.717,0,0,1,.72-.717H4834a.717.717,0,0,1,.72.717v2.739a.715.715,0,0,1-.72.716Z" transform="translate(-4819.166 -11173.168)" fill="#f7876b"/></g></svg>