<svg xmlns="http://www.w3.org/2000/svg" width="120" height="40" viewBox="0 0 120 40"><g transform="translate(-165 -884)"><rect width="120" height="40" transform="translate(165 884)" fill="none"/><path d="M275.1,884H172.5l-2,.2a6.7,6.7,0,0,0-1.9.6A6.4,6.4,0,0,0,167,886a6.3,6.3,0,0,0-1.2,1.6,6.6,6.6,0,0,0-.6,1.9,13,13,0,0,0-.2,2v24.9a13,13,0,0,0,.2,2,6.6,6.6,0,0,0,.6,1.9A6.2,6.2,0,0,0,167,922a6.3,6.3,0,0,0,1.6,1.2,6.7,6.7,0,0,0,1.9.6l2,.2H277.1l2-.2a6.8,6.8,0,0,0,1.9-.6,6.3,6.3,0,0,0,1.6-1.2,6.4,6.4,0,0,0,1.2-1.6,6.6,6.6,0,0,0,.6-1.9,13.5,13.5,0,0,0,.2-2v-25a13.5,13.5,0,0,0-.2-2,6.6,6.6,0,0,0-.6-1.9,6.5,6.5,0,0,0-2.8-2.8,6.8,6.8,0,0,0-1.9-.6l-2-.2h-2Z" fill="#a6a6a6"/><path d="M173.4,923.1h-.9l-1.9-.2-1.7-.6a5.4,5.4,0,0,1-1.4-1,5.3,5.3,0,0,1-1-1.4,5.7,5.7,0,0,1-.5-1.7,12.4,12.4,0,0,1-.2-1.9V891.5a12.4,12.4,0,0,1,.2-1.9,5.8,5.8,0,0,1,.5-1.7,5.4,5.4,0,0,1,1-1.4,5.6,5.6,0,0,1,1.4-1l1.7-.5,1.9-.2H277.1l1.9.2,1.7.5a5.6,5.6,0,0,1,2.4,2.4,5.8,5.8,0,0,1,.5,1.6,13,13,0,0,1,.2,1.9v24.9a12.7,12.7,0,0,1-.2,1.9,5.7,5.7,0,0,1-.5,1.7,5.5,5.5,0,0,1-1,1.4,5.4,5.4,0,0,1-1.4,1l-1.7.5-1.9.2H173.4Z"/><path d="M189.8,904.3a4.9,4.9,0,0,1,2.4-4.2,5.1,5.1,0,0,0-4-2.2c-1.7-.2-3.3,1-4.2,1s-2.2-1-3.6-1a5.3,5.3,0,0,0-4.5,2.7c-1.9,3.3-.5,8.3,1.4,11s2,2.8,3.4,2.8,1.9-.9,3.6-.9,2.1.9,3.6.9,2.4-1.3,3.3-2.7a11,11,0,0,0,1.5-3.1,4.8,4.8,0,0,1-2.9-4.3Z" fill="#fff"/><path d="M187,896.2a4.9,4.9,0,0,0,1.1-3.5,5,5,0,0,0-3.2,1.7,4.6,4.6,0,0,0-1.1,3.4A4.1,4.1,0,0,0,187,896.2Z" fill="#fff"/><path d="M207.3,911.1h-4.7l-1.1,3.4h-2l4.5-12.4h2l4.5,12.4h-2Zm-4.2-1.5h3.8l-1.8-5.4h0Z" fill="#fff"/><path d="M220.2,910c0,2.8-1.5,4.6-3.8,4.6a3.1,3.1,0,0,1-2.8-1.6h0v4.5h-1.9v-12h1.8V907h0a3.2,3.2,0,0,1,2.9-1.6C218.6,905.3,220.2,907.2,220.2,910Zm-1.9,0c0-1.8-.9-3-2.4-3s-2.4,1.2-2.4,3,1,3,2.4,3S218.3,911.8,218.3,910Z" fill="#fff"/><path d="M230.1,910c0,2.8-1.5,4.6-3.8,4.6a3.1,3.1,0,0,1-2.8-1.6h0v4.5h-1.9v-12h1.8V907h0a3.2,3.2,0,0,1,2.9-1.6C228.6,905.3,230.1,907.2,230.1,910Zm-1.9,0c0-1.8-.9-3-2.4-3s-2.4,1.2-2.4,3,1,3,2.4,3,2.4-1.2,2.4-3Z" fill="#fff"/><path d="M236.7,911c.1,1.2,1.3,2,3,2s2.7-.8,2.7-1.9-.7-1.5-2.3-1.9l-1.6-.4c-2.3-.6-3.3-1.6-3.3-3.3s1.9-3.6,4.5-3.6,4.4,1.5,4.5,3.6h-1.9a2.315,2.315,0,0,0-2.6-2c-1.5,0-2.5.8-2.5,1.9s.7,1.4,2.3,1.8l1.4.3c2.5.6,3.6,1.6,3.6,3.4s-1.9,3.8-4.8,3.8-4.6-1.4-4.7-3.7Z" fill="#fff"/><path d="M248.3,903.3v2.1H250v1.5h-1.7v5c0,.8.3,1.1,1.1,1.1h.6v1.5h-1c-1.8,0-2.5-.7-2.5-2.4v-5.2h-1.3v-1.5h1.3v-2.1Z" fill="#fff"/><path d="M251.1,910c0-2.8,1.7-4.6,4.3-4.6s4.3,1.8,4.3,4.6-1.7,4.6-4.3,4.6S251.1,912.8,251.1,910Zm6.7,0c0-2-.9-3.1-2.4-3.1S253,908,253,910s.9,3.1,2.4,3.1,2.4-1.2,2.4-3.1Z" fill="#fff"/><path d="M261.2,905.4H263V907h0a2.2,2.2,0,0,1,2.2-1.6h.6v1.7H265a1.9,1.9,0,0,0-1.9,2.1v5.4h-1.9Z" fill="#fff"/><path d="M274.4,911.8c-.2,1.6-1.9,2.8-3.9,2.8a4.532,4.532,0,0,1-4.3-4.6c0-2.8,1.6-4.7,4.2-4.7s4.1,1.7,4.1,4.5v.6h-6.4a2.4,2.4,0,0,0,2.1,2.6h.3a2,2,0,0,0,2.1-1.3Zm-6.3-2.7h4.5a2.2,2.2,0,0,0-2-2.3h-.2a2.3,2.3,0,0,0-2.3,2.3Z" fill="#fff"/><path d="M202.8,892.7a2.6,2.6,0,0,1,2.8,3c0,1.9-1,3-2.8,3h-2.2v-6Zm-1.2,5.1h1.1a2.2,2.2,0,0,0,.4-4.3h-1.5Z" fill="#fff"/><path d="M206.7,896.4a2.1,2.1,0,1,1,0,.4A2.1,2.1,0,0,1,206.7,896.4Zm3.3,0q0-1.5-1.2-1.5c-.8,0-1.2.6-1.2,1.5s.4,1.6,1.2,1.6S210,897.4,210,896.4Z" fill="#fff"/><path d="M216.6,898.7h-.9l-.9-3.3h-.1l-.9,3.3h-.9l-1.2-4.5h.9l.8,3.4h.1l.9-3.4h.9l.9,3.4h.1l.8-3.4h.9Z" fill="#fff"/><path d="M218.9,894.2h.9v.7h.1a1.3,1.3,0,0,1,1.3-.8,1.5,1.5,0,0,1,1.6,1.7v2.9h-.9V896c0-.7-.3-1.1-1-1.1a1,1,0,0,0-1.1,1.1v2.6h-.9Z" fill="#fff"/><path d="M224.1,892.4h.9v6.3h-.9Z" fill="#fff"/><path d="M226.2,896.4a2.1,2.1,0,1,1,0,.4,2.1,2.1,0,0,1,0-.4Zm3.3,0q0-1.5-1.2-1.5c-.8,0-1.2.6-1.2,1.5s.4,1.6,1.2,1.6,1.3-.6,1.3-1.6Z" fill="#fff"/><path d="M231.4,897.4c0-.8.6-1.3,1.7-1.3h1.2v-.4c0-.5-.3-.7-.9-.7s-.8.2-.9.5h-.9a1.861,1.861,0,0,1,3.6.2v3.1h-.9v-.6h-.1a1.5,1.5,0,0,1-1.4.7,1.4,1.4,0,0,1-1.5-1.2h0Zm2.9-.4v-.4h-1.1c-.6,0-.9.3-.9.6s.4.6.8.6a1.1,1.1,0,0,0,1.2-.9Z" fill="#fff"/><path d="M236.3,896.4c0-1.4.7-2.3,1.9-2.3a1.5,1.5,0,0,1,1.4.8h.1v-2.5h.9v6.3h-.9V898h-.1a1.6,1.6,0,0,1-1.4.8C237.1,898.8,236.3,897.9,236.3,896.4Zm.9,0q0,1.5,1.2,1.5c.8,0,1.2-.6,1.2-1.5s-.5-1.5-1.2-1.5-1.1.6-1.1,1.5Z" fill="#fff"/><path d="M244.2,896.4a2.1,2.1,0,1,1,0,.4A2.1,2.1,0,0,1,244.2,896.4Zm3.3,0q0-1.5-1.2-1.5c-.8,0-1.2.6-1.2,1.5s.4,1.6,1.2,1.6,1.3-.6,1.3-1.6Z" fill="#fff"/><path d="M249.7,894.2h.9v.7h.1a1.3,1.3,0,0,1,1.3-.8,1.5,1.5,0,0,1,1.6,1.7v2.9h-.9V896c0-.7-.3-1.1-1-1.1a1,1,0,0,0-1.1,1.1v2.6h-.9Z" fill="#fff"/><path d="M258.5,893.1v1.1h1v.7h-1v2.3c0,.5.2.7.6.7h.3v.7H259c-1,0-1.4-.3-1.4-1.2V895h-.7v-.7h.7v-1.1Z" fill="#fff"/><path d="M260.7,892.4h.9v2.5h.1a1.4,1.4,0,0,1,1.4-.8,1.5,1.5,0,0,1,1.6,1.7v2.9h-.9V896c0-.7-.3-1.1-1-1.1a1.1,1.1,0,0,0-1.1,1.1v2.6h-.9Z" fill="#fff"/><path d="M269.8,897.5a1.8,1.8,0,0,1-2,1.3,2,2,0,0,1-2.1-2.3,2.1,2.1,0,0,1,1.8-2.3h.3c1.3,0,2,.9,2,2.3v.3h-3.2a1.2,1.2,0,0,0,1.1,1.3h.1a1.1,1.1,0,0,0,1.1-.5Zm-3.1-1.5H269a1.1,1.1,0,0,0-1-1.2h-.1a1.2,1.2,0,0,0-1.2,1.1h0Z" fill="#fff"/></g></svg>