<svg xmlns="http://www.w3.org/2000/svg" width="20" height="20" viewBox="0 0 20 20"><g transform="translate(-793 -152)"><rect width="20" height="20" transform="translate(793 152)" fill="none"/><path d="M793,170a11.688,11.688,0,0,0,6.25,1.812A11.813,11.813,0,0,0,810.812,162a8.641,8.641,0,0,1,.188-2.25c.25-.5.75-.625,1.063-.875a5.123,5.123,0,0,0,.938-1.187,8.936,8.936,0,0,1-2.375.625,4.125,4.125,0,0,0,1.812-2.25c-.125.375-1.625.75-1.937.813a3.356,3.356,0,0,1-1.562-.5,4.313,4.313,0,0,0-4.313.063,4.125,4.125,0,0,0-1.812,4.25c-3.125.25-6.625-1.938-8.5-4.25a12.454,12.454,0,0,0-.5,1.437,4.187,4.187,0,0,0,.313,2.313c.187.375.875,1.625,1.375,1.625-.687-.062-1.937-.188-1.937-.5h0a4.125,4.125,0,0,0,1,2.625c.5.625,1.5,1.5,2.375,1.375-.187.063-1.75.313-1.813.063.563,1.688,2.063,2.25,3.563,2.813A7.375,7.375,0,0,1,795,169.872,3.61,3.61,0,0,1,793,170Z" transform="translate(0 -1.434)" fill="#f7876b"/></g></svg>