<svg xmlns="http://www.w3.org/2000/svg" width="20" height="20" viewBox="0 0 20 20"><g transform="translate(-165 -152)"><rect width="20" height="20" transform="translate(165 152)" fill="none"/><path d="M177.653,171.062a16.375,16.375,0,0,1-4.937-2.5,16.937,16.937,0,0,1-3.25-2.938,16.5,16.5,0,0,1-3.437-6.187A2.875,2.875,0,0,1,167.59,156l1.5-.625.688-.312.25-.125,2.438,5.188-2,.938c.438,1.125,3.125,4.75,5.625,5.5l.25-.5.563-1.187.125-.25L182.153,167l-.625,1.437a3.656,3.656,0,0,1-2.187,2.5l-.875.188Zm-3.625-14.375.125-.562a8.937,8.937,0,0,1,7.375,7.188l-.562.125a8.438,8.438,0,0,0-6.875-6.75Zm.562-3.188V153a12.188,12.188,0,0,1,10,9.812l-.562.125a11.625,11.625,0,0,0-9.5-9.375Z" transform="translate(-0.34 -0.375)" fill="#f7876b"/></g></svg>