<svg xmlns="http://www.w3.org/2000/svg" xmlns:xlink="http://www.w3.org/1999/xlink" width="135" height="40" viewBox="0 0 135 40"><defs><linearGradient id="a" x1="-18.186" y1="4.633" x2="-18.285" y2="4.66" gradientUnits="objectBoundingBox"><stop offset="0" stop-color="#00a0ff"/><stop offset="0.01" stop-color="#00a1ff"/><stop offset="0.26" stop-color="#00beff"/><stop offset="0.51" stop-color="#00d2ff"/><stop offset="0.76" stop-color="#00dfff"/><stop offset="1" stop-color="#00e3ff"/></linearGradient><linearGradient id="b" x1="-24.699" y1="12.582" x2="-24.933" y2="12.582" gradientUnits="objectBoundingBox"><stop offset="0" stop-color="#ffe000"/><stop offset="0.41" stop-color="#ffbd00"/><stop offset="0.78" stop-color="orange"/><stop offset="1" stop-color="#ff9c00"/></linearGradient><linearGradient id="c" x1="-14.166" y1="8.059" x2="-14.247" y2="8.195" gradientUnits="objectBoundingBox"><stop offset="0" stop-color="#ff3a44"/><stop offset="1" stop-color="#c31162"/></linearGradient><linearGradient id="d" x1="-14.156" y1="8.985" x2="-14.119" y2="9.047" gradientUnits="objectBoundingBox"><stop offset="0" stop-color="#32a071"/><stop offset="0.07" stop-color="#2da771"/><stop offset="0.48" stop-color="#15cf74"/><stop offset="0.8" stop-color="#06e775"/><stop offset="1" stop-color="#00f076"/></linearGradient></defs><g transform="translate(-301 -884)"><rect width="135" height="40" transform="translate(301 884)" fill="none"/><rect width="135" height="40" rx="5" transform="translate(301 884)"/><path d="M431,884.8a4.2,4.2,0,0,1,4.2,4.2v30a4.2,4.2,0,0,1-4.2,4.2H306a4.2,4.2,0,0,1-4.2-4.2h0V889a4.2,4.2,0,0,1,4.2-4.2H431m0-.8H306a5,5,0,0,0-5,5v30a5,5,0,0,0,5,5H431a5,5,0,0,0,5-5V889a5,5,0,0,0-5-5Z" fill="#a6a6a6"/><path d="M348.4,894.2a2.7,2.7,0,0,1-.7,2,2.9,2.9,0,0,1-2.2.9,3.15,3.15,0,1,1,0-6.3l1.2.3a2.5,2.5,0,0,1,.9.7l-.5.5a2,2,0,0,0-1.6-.7,2.3,2.3,0,0,0-2.3,2.3h0a2.4,2.4,0,0,0,4,1.7,1.9,1.9,0,0,0,.5-1.2h-2.2v-.7h2.9a2.5,2.5,0,0,1,0,.5Z" fill="#fff" stroke="#fff" stroke-miterlimit="10" stroke-width="0.2"/><path d="M353,891.7h-2.7v1.9h2.5v.7h-2.5v1.9H353v.7h-3.5v-6H353Z" fill="#fff" stroke="#fff" stroke-miterlimit="10" stroke-width="0.2"/><path d="M356.3,897h-.8v-5.3h-1.7V891H358v.7h-1.7Z" fill="#fff" stroke="#fff" stroke-miterlimit="10" stroke-width="0.2"/><path d="M360.9,897v-6h.8v6Z" fill="#fff" stroke="#fff" stroke-miterlimit="10" stroke-width="0.2"/><path d="M365.1,897h-.8v-5.3h-1.7V891h4.1v.7H365Z" fill="#fff" stroke="#fff" stroke-miterlimit="10" stroke-width="0.2"/><path d="M374.6,896.2a3.1,3.1,0,0,1-4.4,0,3.2,3.2,0,0,1,0-4.5,3.1,3.1,0,0,1,4.4,0h0A3.2,3.2,0,0,1,374.6,896.2Zm-3.8-.5a2.3,2.3,0,0,0,3.3,0,2.6,2.6,0,0,0,0-3.4,2.3,2.3,0,0,0-3.3,0,2.6,2.6,0,0,0,0,3.4Z" fill="#fff" stroke="#fff" stroke-miterlimit="10" stroke-width="0.2"/><path d="M376.6,897v-6h.9l2.9,4.7h0V891h.8v6h-.8l-3.1-4.9h0V897Z" fill="#fff" stroke="#fff" stroke-miterlimit="10" stroke-width="0.2"/><path d="M369.1,905.8a4.3,4.3,0,1,0,4.3,4.2,4.2,4.2,0,0,0-4.1-4.2h-.1Zm0,6.8a2.6,2.6,0,1,1,2.4-2.8v.2a2.5,2.5,0,0,1-2.3,2.6Zm-9.3-6.8a4.3,4.3,0,1,0,4.3,4.2,4.2,4.2,0,0,0-4.1-4.2h-.1Zm0,6.8a2.6,2.6,0,1,1,2.4-2.8v.2a2.5,2.5,0,0,1-2.3,2.6Zm-11.1-5.5v1.8H353a3.8,3.8,0,0,1-1,2.3,4.4,4.4,0,0,1-3.3,1.3,4.8,4.8,0,1,1,0-9.6,4.6,4.6,0,0,1,3.3,1.3l1.3-1.3a6.3,6.3,0,0,0-4.5-1.8,6.6,6.6,0,0,0,0,13.2h0a5.975,5.975,0,0,0,6.2-6.1,5.9,5.9,0,0,0-.1-1.1Zm45.3,1.4a3.906,3.906,0,0,0-7.6,1.4v.2a4.2,4.2,0,0,0,4.1,4.3h.2a4.2,4.2,0,0,0,3.5-1.9l-1.4-1a2.4,2.4,0,0,1-2.1,1.2,2.2,2.2,0,0,1-2.1-1.3l5.7-2.4Zm-5.8,1.4a2.3,2.3,0,0,1,2.2-2.5h0a1.6,1.6,0,0,1,1.6.9Zm-4.6,4.1h1.9V901.5h-1.9Zm-3.1-7.3h-.1a2.9,2.9,0,0,0-2.2-1,4.3,4.3,0,0,0,0,8.5,2.9,2.9,0,0,0,2.2-1h.1v.6a2.213,2.213,0,0,1-2.3,2.5,2.4,2.4,0,0,1-2.1-1.5l-1.6.7a4.1,4.1,0,0,0,3.8,2.5c2.2,0,4-1.3,4-4.4V906h-1.8Zm-2.1,5.9a2.6,2.6,0,1,1,0-5.2,2.4,2.4,0,0,1,2.3,2.5h0a2.4,2.4,0,0,1-2.2,2.6h-.1Zm24.4-11.1h-4.5V914h1.9v-4.7h2.6a3.905,3.905,0,1,0,.4-7.8h-.4Zm0,6h-2.7v-4.3h2.7a2.15,2.15,0,0,1,0,4.3Zm11.5-1.8a3.5,3.5,0,0,0-3.3,1.9l1.7.7a1.991,1.991,0,0,1,3.7.7h0a4.1,4.1,0,0,0-1.9-.5c-1.8,0-3.6,1-3.6,2.8a2.9,2.9,0,0,0,3,2.8h.1a2.6,2.6,0,0,0,2.4-1.2h.1v1h1.8v-4.8c0-2.2-1.6-3.5-3.8-3.5Zm-.2,6.9c-.6,0-1.5-.3-1.5-1.1s1.1-1.3,2-1.3a3.3,3.3,0,0,1,1.7.4,2.3,2.3,0,0,1-2.2,2Zm10.6-6.6-2.1,5.4h-.1l-2.2-5.4h-2l3.3,7.6-1.9,4.2h1.9l5.1-11.8Zm-16.8,8h1.9V901.5h-1.9Z" fill="#fff"/><path d="M311.4,891.5a2,2,0,0,0-.5,1.4V915a2,2,0,0,0,.5,1.4h.1L323.9,904v-.3l-12.4-12.4Z" fill="url(#a)"/><path d="M328,908.3l-4.1-4.1v-.3l4.1-4.1h.1l4.9,2.8c1.4.8,1.4,2.1,0,2.9l-4.9,2.8Z" fill="url(#b)"/><path d="M328.1,908.2l-4.2-4.2-12.5,12.5a1.6,1.6,0,0,0,2.1.1l14.6-8.3" fill="url(#c)"/><path d="M328.1,899.8l-14.6-8.3a1.6,1.6,0,0,0-2.1.1L323.9,904Z" fill="url(#d)"/><path d="M328,908.1l-14.5,8.2a1.7,1.7,0,0,1-2,0h0a1.7,1.7,0,0,0,2,0l14.6-8.3Z" opacity="0.2"/><path d="M311.4,916.3a2,2,0,0,1-.5-1.4h0a2,2,0,0,0,.5,1.4Z" opacity="0.12"/><path d="M333,905.3l-5,2.8h.1l4.9-2.8a1.8,1.8,0,0,0,1-1.4h0a1.9,1.9,0,0,1-1,1.4Z" opacity="0.12"/><path d="M313.5,891.6,333,902.7a1.9,1.9,0,0,1,1,1.3h0a1.8,1.8,0,0,0-1-1.4l-19.5-11.1c-1.4-.8-2.5-.1-2.5,1.5h0C311,891.5,312.1,890.8,313.5,891.6Z" fill="#fff" opacity="0.25"/></g></svg>