<svg xmlns="http://www.w3.org/2000/svg" width="245" height="48" viewBox="0 0 245 48"><g transform="translate(-165 -171)"><g transform="translate(165 175)"><g transform="translate(122.199 20)"><g transform="translate(-122.199 -20)"><path d="M237.69,46.141a6,6,0,0,1,6.283-6.073c3.351,0,5.934,2.024,5.934,5.934s-2.792,6.073-6.213,6.073A5.66,5.66,0,0,1,237.69,46.141Zm1.815-.349c0,3.56,1.815,5.654,4.4,5.654s4.119-2.513,4.119-5.1-1.606-5.794-4.4-5.794S239.5,42.72,239.5,45.792Zm-43.141-3.77c-.279-.628-.419-1.257-.977-1.326h-.558v-.419h4.4V40.7h-.558c-.279.07-.768.14-.768.419l.209.7,3,7.749c.419-1.047,3.141-7.818,3.141-8.307s-.349-.419-.7-.489l-.768-.14v-.419h3.77v.419l-.419.14-.489.279a19.4,19.4,0,0,0-1.4,2.932l-1.187,2.862c-.977,2.373-1.815,4.538-2.024,4.956l-.628.279Zm-73.508,4.049c0-4.677,3.77-6.073,6.492-6.073a7.888,7.888,0,0,1,3.56.7,10.821,10.821,0,0,1,.279,2.583l-.419.14a3,3,0,0,0-3.351-2.792c-2.932,0-4.677,1.885-4.677,5.166s1.536,5.724,4.956,5.724a9.983,9.983,0,0,0,2.024-.209v-.7c0-2.094,0-2.234-1.257-2.3h-.628v-.419h4.4V48.3h-.628c-.349.07-.349.14-.349,1.815v1.257a14.311,14.311,0,0,1-3.839.7C126,52.074,122.855,50.538,122.855,46.071Zm95.777,5.236a7.748,7.748,0,0,1-.558-3.072l.558-.14c.14,1.257.838,3.281,3.281,3.281a1.955,1.955,0,0,0,2.094-1.885v-.209c0-1.257-1.047-2.094-2.373-2.723l-1.117-.628A3.421,3.421,0,0,1,218.632,43c0-2.094,1.815-3,3.63-3a4.607,4.607,0,0,1,2.373.558,9.075,9.075,0,0,1,.14,2.373h-.419c-.14-.908-.419-2.373-2.373-2.373a1.815,1.815,0,0,0-1.885,1.815h0c0,.977.7,1.536,1.675,2.094l.977.628c1.4.768,2.792,1.536,2.792,3.56s-2.164,3.281-4.049,3.281a5.584,5.584,0,0,1-2.862-.7Zm-65.55-2.792L147.847,43v5.864c0,1.885,0,2.373.907,2.443h.628v.419h-3.77v-.419h.628c.7-.07.768-.628.768-2.443V40.277l.419-.14c1.466,1.815,6.632,7.19,8.517,9.075V43.139c0-1.885,0-2.373-.977-2.443h-.628v-.419h3.77V40.7h-.628c-.628.07-.7.628-.7,2.443v8.586l-.419.14C155.944,51.516,154.9,50.329,153.082,48.514Zm-84.049,0L63.8,43v5.864c0,1.885,0,2.373.908,2.443h.628v.419h-3.77v-.419h.558c.7-.07.768-.628.768-2.443V40.277l.419-.14c1.466,1.815,6.632,7.19,8.517,9.075V43.139c0-1.885,0-2.373-.977-2.443H70.22v-.419h3.77V40.7h-.628c-.628.07-.7.628-.7,2.443v8.586l-.419.14c-.349-.349-1.4-1.536-3.211-3.351Zm119.511-.07-5.236-5.515v5.864c0,1.885,0,2.373.908,2.443h.628v.419h-3.77v-.349h.628c.7-.07.768-.628.768-2.443V40.277l.419-.14c1.466,1.815,6.632,7.19,8.517,9.075v-6c0-1.885,0-2.373-.977-2.443H189.8v-.419h3.77V40.7h-.628c-.628.07-.7.628-.7,2.443v8.586l-.419.14ZM87.253,51.8v-.419h.628c.7-.07.7-.14.7-2.3V42.929c0-2.094,0-2.234-.7-2.3h-.628v-.419h7.469a17.172,17.172,0,0,1,.14,1.815,2.652,2.652,0,0,1-.07.7h-.419c-.419-1.815-.419-2.094-2.862-2.094h-1.4v4.817h1.536c1.326,0,1.675,0,1.815-.7l.14-.628h.419v3.211h-.419l-.14-.558c-.14-.7-.419-.7-1.815-.7H90.115V51.1A8.656,8.656,0,0,0,92,51.306c2.723,0,2.932-1.047,3.281-2.443H95.7a14.45,14.45,0,0,1-.558,2.932Zm172.565,0a2.722,2.722,0,0,1-2.443-1.745l-.7-1.326a8.867,8.867,0,0,0-1.047-1.745,1.466,1.466,0,0,0-1.047-.209h-.7v2.3c0,2.094,0,2.234.7,2.3h.628v.489h-4.188v-.419h.558c.7-.07.7-.14.7-2.3V43c0-2.094,0-2.234-.7-2.3h-.628v-.419h4.538c1.675,0,3.979.209,3.979,2.932,0,1.606-1.466,2.583-2.373,3l1.257,2.443a8.167,8.167,0,0,0,1.955,2.583,1.326,1.326,0,0,0,.907.14V51.8Zm-5.934-10.82V46.28h.977a2.583,2.583,0,0,0,2.792-2.3v-.419a2.373,2.373,0,0,0-2.234-2.653h-.489a2.653,2.653,0,0,0-1.047.07Zm0,5.305M229.033,51.8v-.419h.7c.977-.07.977-.14.977-2.3V40.7H229.8c-2.443,0-2.513.279-2.862,2.3h-.419c0-.07-.07-.558-.07-.768a19.767,19.767,0,0,1,.14-2.024h9.7a19.763,19.763,0,0,1,.14,2.024c0,.209-.07.7-.07.768h-.419c-.419-2.024-.419-2.3-2.862-2.3h-.908V49c0,2.094,0,2.234.977,2.3h.628v.419Zm-21.222,0v-.419h.628c.7-.07.7-.14.7-2.3V42.929c0-2.094,0-2.234-.7-2.3h-.628v-.419h7.469a17.185,17.185,0,0,1,.14,1.815,2.653,2.653,0,0,1-.07.7h-.419c-.419-1.815-.419-2.094-2.862-2.094H210.6v4.817h1.536c1.326,0,1.675,0,1.815-.7l.14-.628h.419v3.211h-.419l-.14-.628c-.14-.7-.419-.7-1.815-.7H210.6v5.026a8.657,8.657,0,0,0,1.885.209c2.792,0,2.932-1.047,3.281-2.443h.419a14.452,14.452,0,0,1-.558,2.932Zm-32.391,0v-.419h.628c.7-.07.7-.14.7-2.3V42.929c0-2.094,0-2.234-.7-2.3h-.628v-.419h4.258v.419h-.628c-.7.07-.7.14-.7,2.3V49c0,2.094,0,2.234.7,2.3h.628v.419Zm-13.264,0v-.419h.768c.977-.07.977-.14.977-2.3V40.7h-.977c-2.443,0-2.513.279-2.862,2.3h-.419c0-.07-.07-.558-.07-.768a19.754,19.754,0,0,1,.14-2.024h9.7a19.763,19.763,0,0,1,.14,2.024c0,.209-.07.7-.07.768h-.419c-.419-2.024-.419-2.3-2.862-2.3H165.3V49c0,2.094,0,2.234.977,2.3h.628v.419Zm-26.457,0v-.419h.628c.7-.07.7-.14.7-2.3V42.929c0-2.094,0-2.234-.7-2.3H135.7v-.419h7.469a17.16,17.16,0,0,1,.14,1.815,2.653,2.653,0,0,1-.07.7h-.419c-.419-1.815-.419-2.094-2.862-2.094h-1.326v4.817h1.606c1.326,0,1.675,0,1.815-.7l.14-.628h.419v3.211h-.419l-.14-.628c-.14-.7-.419-.7-1.815-.7h-1.606v5.026a8.656,8.656,0,0,0,1.885.209c2.792,0,2.932-1.047,3.281-2.443h.419a14.452,14.452,0,0,1-.558,2.932Zm-18.778,0v-.419h.628c.7-.07.7-.14.7-2.3V42.929c0-2.094,0-2.234-.7-2.3h-.628v-.419h4.258v.419h-.628c-.7.07-.7.14-.7,2.3V49c0,2.094,0,2.234.7,2.3h.628v.419Zm-9.843,0v-.419h.558c.7-.07.7-.14.7-2.3V42.929c0-2.094,0-2.234-.7-2.3h-.628v-.419h4.258v.419h-.628c-.7.07-.7.14-.7,2.3v8.028a8.656,8.656,0,0,0,1.885.209c2.583,0,2.722-1.047,3.072-2.443h.419a14.448,14.448,0,0,1-.558,2.932Zm-9.7,0v-.419h.558c.7-.07.7-.14.7-2.3V42.929c0-2.094,0-2.234-.7-2.3h-.628v-.419h4.258v.419h-.628c-.7.07-.7.14-.7,2.3v8.028a8.656,8.656,0,0,0,1.885.209c2.583,0,2.723-1.047,3.072-2.443h.419a14.448,14.448,0,0,1-.558,2.932Zm-19.2,0v-.419h.7c.977-.07.977-.14.977-2.3V40.7h-.908c-2.443,0-2.513.279-2.862,2.3h-.419c0-.07-.07-.558-.07-.768a19.758,19.758,0,0,1,.14-2.024h9.7a19.758,19.758,0,0,1,.14,2.024c0,.209-.07.7-.07.768h-.419c-.419-2.024-.419-2.3-2.862-2.3H81.32V49c0,2.094,0,2.234.977,2.3h.628v.419ZM55.7,51.8v-.419h.628c.7-.07.7-.14.7-2.3V42.929c0-2.094,0-2.234-.7-2.3H55.7v-.419h4.258v.419H59.33c-.7.07-.7.14-.7,2.3V49c0,2.094,0,2.234.7,2.3h.628v.419Z" transform="translate(-16.817 -12.074)"/><path d="M20.454,22.269c4.887.768,3.49,4.887,3.56,4.956C19.337,26.387,20.454,22.269,20.454,22.269ZM8.935,26.457c-.349-4.956,3.979-4.468,4.049-4.607C13.194,26.387,9.354,26.457,8.935,26.457ZM24.154,21.85c4.677-1.675,5.445,2.583,5.515,2.583a5.235,5.235,0,0,1-1.815.349c-2.862,0-3.7-2.932-3.7-2.932Zm-21.5.908c3.141-3.839,6-.628,6.073-.628a4.049,4.049,0,0,1-3.211,1.745,4.188,4.188,0,0,1-2.862-1.117Zm25.759-2.583c3.77-3.211,5.934.558,6.073.558a4.817,4.817,0,0,1-2.862,1.187,4.538,4.538,0,0,1-3.211-1.745Zm-5.166-4.4c1.4,4.747-2.932,5.236-2.932,5.305A3.94,3.94,0,0,1,23.246,15.777ZM.489,19.616c2.234-4.4,5.724-1.815,5.794-1.815-1.047,1.955-2.373,2.513-3.56,2.513a5.236,5.236,0,0,1-2.234-.7ZM7.4,17.731c4.4-2.164,5.724,1.955,5.794,1.955a5.026,5.026,0,0,1-2.234.558A4.047,4.047,0,0,1,7.4,17.731Zm20.733-1.815c3.281-3.77,6-.419,6.073-.349a4.328,4.328,0,0,1-3.141,1.606,4.817,4.817,0,0,1-2.932-1.257ZM12.286,13.264C17.1,12.077,17.452,16.4,17.522,16.4a4.747,4.747,0,0,1-1.4.14A3.875,3.875,0,0,1,12.286,13.264ZM0,14.241c3.839-3.211,6,.628,6.073.628a4.328,4.328,0,0,1-2.862,1.117A4.049,4.049,0,0,1,0,14.241Zm19.337,0c1.745-3.072,3.909-2.513,5.1-1.955l.768.419a3.953,3.953,0,0,1-3.49,2.3,4.188,4.188,0,0,1-2.373-.768Zm7.609-1.187c1.675-4.677,5.445-2.513,5.515-2.513-.908,2.373-2.443,2.932-3.7,2.932a7.679,7.679,0,0,1-1.815-.419Zm-10.4-6.143c4.4,2.373,1.606,5.794,1.675,5.864C14.1,10.4,16.545,6.911,16.545,6.911ZM2.024,9.145C6.7,7.749,7.26,12.077,7.4,12.077l-1.606.279A4.036,4.036,0,0,1,2.024,9.145Zm23.316.7C25.9,5.864,28.691,6,29.808,6.143h.419c-.489,3.211-2.653,3.7-3.909,3.7ZM5.864,4.817c4.956.628,3.7,4.747,3.77,4.817C4.956,9.005,5.864,4.817,5.864,4.817ZM9.773,1.955c4.817.977,3.281,4.956,3.351,5.1A3.935,3.935,0,0,1,9.773,1.955Zm13.473,4.4A3.93,3.93,0,0,1,27.5,2.024c.07,3.909-2.653,4.328-3.77,4.328a.558.558,0,0,1-.489,0ZM21.92.14c2.094,4.468-2.094,5.585-2.164,5.724C17.871,1.536,21.92.14,21.92.14ZM15.288,0c4.4,2.373,1.606,5.794,1.675,5.864A3.925,3.925,0,0,1,15.288,0Z" fill="#a7a9ac"/><path d="M27.542,21.26a1.815,1.815,0,1,1,1.815,1.815A1.885,1.885,0,0,1,27.542,21.26ZM10.3,17.281a1.815,1.815,0,0,1,3.63-.07v.14a1.815,1.815,0,0,1-1.815,1.815A1.955,1.955,0,0,1,10.3,17.281ZM14,12.953a1.815,1.815,0,0,1,3.63-.07v.14a1.815,1.815,0,0,1-1.815,1.815A1.885,1.885,0,0,1,14,12.953Zm9.424-.838a1.815,1.815,0,1,1,1.815,1.815A1.815,1.815,0,0,1,23.424,12.115Z" transform="translate(-3.11 -3.11)" fill="#6d6e71"/><path d="M23.323,47.591l-2.723.14v-.489c.7,0,.838,0,1.117-.7a9.7,9.7,0,0,0,.209-2.862V36.771a9.913,9.913,0,0,0-.209-2.862c-.279-.7-.419-.7-1.117-.7v-.489H25v10.96a9.913,9.913,0,0,0,.209,2.862c.279.7.628.7,1.257.7v.489Zm-2.3-19.267A2.024,2.024,0,0,1,23.043,26.3h0a2.024,2.024,0,0,1,2.024,2.024h0a2.024,2.024,0,0,1-2.024,2.024h0A2.094,2.094,0,0,1,21.019,28.324Z" transform="translate(-6.22 -7.94)"/></g></g><rect width="245" height="40" fill="none"/></g><rect width="245" height="48" transform="translate(165 171)" fill="none"/></g></svg>