<svg xmlns="http://www.w3.org/2000/svg" width="336" height="32" viewBox="0 0 336 32"><g transform="translate(0 1.6)"><path d="M88.4,3.6l9.191,23.652.946,2.433H105.5l-.946-2.433-3.514-8.988L95.361,3.6Z" transform="translate(-28.661 -1.167)" fill="#f7876b"/><path d="M378.637,0l-.946,2.5L368.5,26.085h6.961l5.677-14.665,3.514-8.92L385.6,0Z" transform="translate(-119.473)" fill="#19b499"/><path d="M195.759,12.56c-4.19-1.081-4.528-1.487-4.528-2.433h0c0-.879.946-1.419,2.365-1.419a10.53,10.53,0,0,1,5.609,2.163l.473.27,3.176-4.73-.406-.338A13.786,13.786,0,0,0,193.664,3.1c-5,0-8.515,3.041-8.515,7.366h0c0,5,3.582,6.285,7.974,7.434s4.19,1.554,4.19,2.365h0c0,1.487-2.095,1.622-2.771,1.622a9.937,9.937,0,0,1-6.488-2.636l-.405-.338L184,23.305l.405.338a15.138,15.138,0,0,0,10.069,3.717c5.406,0,8.92-2.973,8.92-7.5h0c0-4.393-3.041-6.082-7.636-7.3" transform="translate(-59.656 -1.004)" fill="#fff"/><path d="M146.214,18.062h10.813V12.588H146.214V9.074h12.232V3.6H140.2V27.252h18.449V21.779H146.214Z" transform="translate(-45.455 -1.167)" fill="#fff"/><path d="M57.24,16.507,47.306,3.6H41.9V27.252h6.014V13.939L58.186,27.252h5.068V3.6H57.24Z" transform="translate(-13.585 -1.167)" fill="#fff"/><path d="M467.6,3.6V9.277h6.961V27.252h6.082V9.277H487.6V3.6Z" transform="translate(-151.603 -1.167)" fill="#fff"/><path d="M436.321,11.845h0c0,1.689-1.216,2.636-3.311,2.636h-4.528V9.074h4.46c1.554,0,3.379.473,3.379,2.7m6.15-.2h0a7.569,7.569,0,0,0-2.095-5.541c-1.622-1.622-4.055-2.433-7.028-2.433H422.4V27.252h6.082V20.022h3.109l4.866,7.231h7.163l-5.744-8.38a7.5,7.5,0,0,0,4.6-7.231" transform="translate(-136.949 -1.167)" fill="#fff"/><path d="M227.2,9.277h6.893V27.252h6.082V9.277h6.961V3.6H227.2Z" transform="translate(-73.662 -1.167)" fill="#fff"/><path d="M282.391,12.56c-4.19-1.081-4.528-1.487-4.528-2.433h0c0-.879.946-1.419,2.365-1.419a10.529,10.529,0,0,1,5.609,2.163l.473.27,3.176-4.73-.406-.338A13.786,13.786,0,0,0,280.3,3.1c-5,0-8.515,3.041-8.515,7.366h0c0,5,3.582,6.285,7.974,7.434s4.19,1.554,4.19,2.365h0c0,1.487-2.095,1.622-2.771,1.622a9.937,9.937,0,0,1-6.488-2.636l-.406-.338L270.7,23.305l.405.338a15.138,15.138,0,0,0,10.069,3.717c5.406,0,8.92-2.973,8.92-7.5h0c0-4.393-3.041-6.082-7.636-7.3" transform="translate(-87.765 -1.004)" fill="#fff"/><path d="M0,3.6V9.277H4.6V21.643H0v5.609H15.205V21.643H10.677V9.277h4.528V3.6Z" transform="translate(0 -1.167)" fill="#fff"/><path d="M112.844,3.6,107.1,18.265l3.514,8.988L119.8,3.6Z" transform="translate(-34.723 -1.167)" fill="#fff"/><path d="M399.9,27.285,390.714,3.7,387.2,12.62l5.744,14.665Z" transform="translate(-125.536 -1.2)" fill="#fff"/><path d="M329.461,12.656,323.717,3.6H317.5V27.252h6.015V13.872l5.879,8.582,5.947-8.718V27.252h6.014V3.6h-6.217Z" transform="translate(-102.938 -1.167)" fill="#fff"/></g><rect width="336" height="32" fill="none"/></svg>