<svg xmlns="http://www.w3.org/2000/svg" width="96" height="96" viewBox="0 0 96 96"><g transform="translate(-925 -2249)"><circle cx="48" cy="48" r="48" transform="translate(925 2249)" fill="#e7f9fd"/><g transform="translate(943 2267)"><rect width="60" height="60" fill="none"/><g transform="translate(2.25 9.75)"><path d="M23.477,39.505H8.683a5.672,5.672,0,0,1-3.644-1.34c-.442-.374-.854-.754-1.223-1.13l5.779-2.193a.292.292,0,0,0,.221-.27.342.342,0,0,0-.221-.32L.6,31.576A17.8,17.8,0,0,1,0,26.694,13.636,13.636,0,0,1,1.307,21.45a34.269,34.269,0,0,1,3.242-5.711A43.675,43.675,0,0,1,8.706,10.6,29.116,29.116,0,0,1,11.37,8.1a1.165,1.165,0,0,0,.583.158h8.255A1.167,1.167,0,0,0,20.79,8.1a29.058,29.058,0,0,1,2.665,2.5,43.792,43.792,0,0,1,4.156,5.139,34.265,34.265,0,0,1,3.242,5.711,13.648,13.648,0,0,1,1.308,5.244,16.054,16.054,0,0,1-1.233,6.661,13.145,13.145,0,0,1-3.806,4.81A5.675,5.675,0,0,1,23.477,39.505ZM13.126,27.389a.219.219,0,0,0-.209.163l-.643,1.769a.2.2,0,0,0,.107.268l.215.161a5.839,5.839,0,0,0,2.3.8V32a.229.229,0,0,0,.215.215h1.769A.229.229,0,0,0,17.1,32V30.393a3.366,3.366,0,0,0,2.627-3.27c.055-2.1-1.626-3-2.9-3.484-.3-.121-.542-.23-.75-.333v-.043c-.634-.3-.911-.542-.957-.848a.818.818,0,0,1-.007-.116c0-.189.085-.8,1.18-.8a3.38,3.38,0,0,1,1.822.483l.375.214a.217.217,0,0,0,.095.021.259.259,0,0,0,.227-.128l.7-1.769a.181.181,0,0,0,.012-.139.23.23,0,0,0-.12-.128l-.268-.161a4.292,4.292,0,0,0-1.876-.59V17.849a.229.229,0,0,0-.215-.213H16.08v-.054h-.8a.232.232,0,0,0-.214.215v1.555a3.2,3.2,0,0,0-2.52,3.109v.033c0,.011,0,.022,0,.032.007,1.892,1.576,2.763,3.109,3.366,1.323.529,1.5,1,1.5,1.394,0,.531-.442.925-1.126,1v-.039a.241.241,0,0,1-.155.051h-.006l-.1,0a4.111,4.111,0,0,1-2.093-.59l-.375-.268A.311.311,0,0,0,13.126,27.389ZM20.562,5.952h0a1.15,1.15,0,0,0-.354-.056H11.953a1.163,1.163,0,0,0-.228.023L8.255,2.626a.5.5,0,0,1-.207-.446.483.483,0,0,1,.314-.358l1.18-.59a2.363,2.363,0,0,1,.88-.163,1.725,1.725,0,0,1,.46.055l1.608.537a1.2,1.2,0,0,0,.329.042,1.715,1.715,0,0,0,.9-.257L15.544.161A.885.885,0,0,1,16.087,0a1.074,1.074,0,0,1,.583.161l1.822,1.286a1.328,1.328,0,0,0,.84.266,1.456,1.456,0,0,0,.392-.052l1.608-.537a1.722,1.722,0,0,1,.46-.055,2.364,2.364,0,0,1,.88.163l1.286.59a.482.482,0,0,1,.273.35.526.526,0,0,1-.166.453L20.562,5.952Z" transform="translate(23.339)" fill="#242342"/><g transform="translate(0 8.217)"><path d="M9.225,15.48H3.412a2.3,2.3,0,0,1-1.432-.505,5.3,5.3,0,0,1-1.5-1.906A6.271,6.271,0,0,1,0,10.467,8.632,8.632,0,0,1,1.779,6.155,14.643,14.643,0,0,1,4.452,3.163a.455.455,0,0,0,.224.059H7.919a.456.456,0,0,0,.235-.065,15.868,15.868,0,0,1,2.687,3.014c1.563,2.251,1.8,3.658,1.8,4.3a6.26,6.26,0,0,1-.485,2.6,5.3,5.3,0,0,1-1.5,1.906A2.3,2.3,0,0,1,9.225,15.48Zm-4-4.735c-.04,0-.081.03-.081.059l-.252.716a.156.156,0,0,0,.042.126l.016.008a.125.125,0,0,0,.025.034l.085.042a1.738,1.738,0,0,0,.842.289v.553a.092.092,0,0,0,.05.076.089.089,0,0,0,.076.051H6.7a.091.091,0,0,0,.084-.084v-.631a1.346,1.346,0,0,0,1.053-1.306A1.743,1.743,0,0,0,6.613,9.246c-.582-.249-.671-.335-.674-.5V8.732a.325.325,0,0,1,.258-.3A.762.762,0,0,1,6.4,8.4a1.082,1.082,0,0,1,.716.21l.127.085a.06.06,0,0,0,.044.017c.041,0,.082-.03.082-.06l.252-.674a.156.156,0,0,0-.042-.126L7.5,7.813a2.088,2.088,0,0,0-.716-.253V7.013A.09.09,0,0,0,6.7,6.929H6.318V6.887H5.981a.091.091,0,0,0-.085.084v.59a1.254,1.254,0,0,0-.968,1.222,1.105,1.105,0,0,0,.359.835,2.7,2.7,0,0,0,.9.555c.489.2.59.366.59.548,0,.221-.157.375-.421.412V11.1H6.192a1.294,1.294,0,0,1-.8-.253l-.126-.084A.064.064,0,0,0,5.22,10.745ZM8.008,2.3h0A.459.459,0,0,0,7.919,2.3H4.676a.48.48,0,0,0-.053,0L3.243.99A.148.148,0,0,1,3.167.868.227.227,0,0,1,3.286.695l.463-.21a.569.569,0,0,1,.3-.07.683.683,0,0,1,.2.028l.589.21a.583.583,0,0,0,.142.017.694.694,0,0,0,.364-.1L6.066.063a.458.458,0,0,1,.463,0l.716.506a.763.763,0,0,0,.381.1A.4.4,0,0,0,7.751.653l.632-.21a.683.683,0,0,1,.2-.028.568.568,0,0,1,.3.07l.463.21a.163.163,0,0,1,.115.112A.2.2,0,0,1,9.393.99L8.008,2.3Z" transform="translate(14.701)" fill="#242342"/><path d="M107.456,2400.869h0l-.007,0h0a.312.312,0,0,1-.117-.055h0l-.006,0,0,0,0,0a.23.23,0,0,1-.066-.271l.674-1.9a49.885,49.885,0,0,1-14.116-1.911,15.038,15.038,0,0,1-4.146-1.915q-.1-.075-.2-.15l0,0-.018-.014a3.089,3.089,0,0,1-1.439-2.3v0c0-.007,0-.013,0-.02a3.209,3.209,0,0,1,1.619-2.462,15.249,15.249,0,0,1,4.415-2.008A51.84,51.84,0,0,1,108.6,2386c1.147,0,2.3.029,3.421.087-.149.318-.291.64-.42.958-.987-.05-2-.076-3-.076a48.52,48.52,0,0,0-11.763,1.322,15.367,15.367,0,0,0-3.567,1.326c-.856.488-1.308,1-1.308,1.48a.813.813,0,0,0,.018.168H92c.337,1.849,7.218,3.364,15.787,3.454h.051l-.59-1.643a.245.245,0,0,1,.295-.337l11.415,3.37a.241.241,0,0,1,0,.463l-6.351,2.4h0l-5.022,1.9a.325.325,0,0,1-.132,0Z" transform="translate(-88 -2371.026)" fill="#242342"/></g></g></g></g></svg>