<svg xmlns="http://www.w3.org/2000/svg" xmlns:xlink="http://www.w3.org/1999/xlink" width="96" height="96" viewBox="0 0 96 96"><defs><clipPath id="a"><rect width="48" height="48" fill="none"/></clipPath></defs><g transform="translate(-544 -882)"><circle cx="48" cy="48" r="48" transform="translate(544 882)" fill="#e7f9fd"/><g transform="translate(568 906)" clip-path="url(#a)"><path d="M0,0H48V48H0Z" fill="none" opacity="0"/><path d="M30,321.5A22.5,22.5,0,1,1,52.5,344,22.5,22.5,0,0,1,30,321.5Zm2.16,0A20.34,20.34,0,1,0,52.5,301.16h0A20.362,20.362,0,0,0,32.16,321.5Zm3.514.128A16.821,16.821,0,1,1,52.5,338.453a16.82,16.82,0,0,1-16.824-16.825Zm13.7-2.783a3.488,3.488,0,1,0,5.9,1.872l5.785-7.56a.756.756,0,0,0-1.055-1.062l-7.655,5.773a3.49,3.49,0,0,0-2.977.977Z" transform="translate(-28.5 -297.5)" fill="#242342"/></g></g></svg>