<svg xmlns="http://www.w3.org/2000/svg" width="96" height="96" viewBox="0 0 96 96"><g transform="translate(-165 -882)"><circle cx="48" cy="48" r="48" transform="translate(165 882)" fill="#e7f9fd"/><g transform="translate(189 906)"><rect width="48" height="48" fill="none"/><path d="M550.538,441.946c0,1.654-.032,3.186.027,4.715a1.676,1.676,0,0,0,.565.909q3.812,3.85,7.652,7.672c.2.2.479.376.565.618.1.273.135.721-.02.886a1.046,1.046,0,0,1-.882.066c-.242-.077-.421-.361-.621-.561q-3.6-3.6-7.191-7.2a7.655,7.655,0,0,1-.651-.885c-.434.4-.689.62-.926.858q-3.634,3.628-7.264,7.261c-.178.177-.335.435-.549.5-.282.088-.8.136-.879,0a1.37,1.37,0,0,1-.032-.965c.057-.212.326-.368.5-.546,2.553-2.555,5.123-5.093,7.642-7.682a2.452,2.452,0,0,0,.613-1.45c.084-1.342.029-2.693.029-4.2h-1.142q-9.658,0-19.316,0c-1.292,0-1.409-.115-1.41-1.389q0-13.663,0-27.326c0-1.218.137-1.356,1.345-1.356q21.248,0,42.5,0c1.157,0,1.307.149,1.307,1.3q0,13.757,0,27.514c0,1.085-.17,1.255-1.258,1.256q-9.658,0-19.316,0Zm-18.855-13.778v.849q0,3.392,0,6.785c0,1.683.026,1.71,1.668,1.711h21.579c3.927,0,7.853-.009,11.779.007.779,0,1.267-.19,1.265-1.093q-.018-9.517,0-19.035c0-.747-.315-1.088-1.074-1.088q-17.056.01-34.112,0c-.812,0-1.115.361-1.111,1.147.017,3.11.007,6.219.01,9.329a2.6,2.6,0,0,0,.042.372,11.452,11.452,0,0,1,1.392-.186c1.73-.021,3.462.02,5.191-.031a1.94,1.94,0,0,0,1.115-.47c1.082-1.053,2.1-2.174,3.147-3.261.9-.935,1.274-.852,1.779.381.748,1.827,1.491,3.657,2.241,5.484.136.331.3.651.521,1.145,1.457-1.481,2.819-2.823,4.126-4.215.624-.665,1.1-.643,1.705.014.888.968,1.837,1.88,2.818,2.874.315-.364.565-.64.8-.927q2.627-3.207,5.253-6.415c.313-.38.633-.9,1.223-.442s.219.878-.11,1.281c-2.088,2.552-4.187,5.1-6.257,7.662-.541.671-1,.737-1.6.09-.938-1-1.919-1.967-2.972-3.039-1.461,1.473-2.824,2.851-4.193,4.224-1.185,1.189-1.418,1.144-2.042-.379q-1.1-2.7-2.212-5.395c-.123-.3-.275-.583-.316-.668-1.1,1-2.152,1.994-3.26,2.917a2.335,2.335,0,0,1-1.3.552c-1.883.06-3.769.038-5.653.017A11.834,11.834,0,0,1,531.683,428.168Z" transform="translate(-525.75 -410.374)" fill="#242342"/></g></g></svg>