<svg xmlns="http://www.w3.org/2000/svg" width="96" height="96" viewBox="0 0 96 96"><g transform="translate(-165 -2249)"><circle cx="48" cy="48" r="48" transform="translate(165 2249)" fill="#e7f9fd"/><g transform="translate(189 2273)"><rect width="48" height="48" fill="none"/><path d="M51.081,77.02a1.788,1.788,0,1,1,1.788-1.788,1.829,1.829,0,0,1-1.788,1.788m1.289-4.782H47.588A1.793,1.793,0,0,0,45.8,73.985V89.5a1.766,1.766,0,0,0,1.788,1.746H52.37A1.793,1.793,0,0,0,54.158,89.5V73.985a1.766,1.766,0,0,0-1.788-1.746m37.84,4.99a3.045,3.045,0,0,0-4.241-.624L78.65,81.969a4.416,4.416,0,0,1-4.2,5.7,4.824,4.824,0,0,1-2-.457L65.76,83.84l.457-.915,6.695,3.368a3.36,3.36,0,0,0,1.539.374,3.379,3.379,0,0,0,3.285-4.034,3.44,3.44,0,0,0-1.788-2.37L61.976,73.195a3.412,3.412,0,0,0-2.7-.166h0l-3.909,1.5V88.248l.166-.083H59.4l14.263,3.618h0a4.582,4.582,0,0,0,.748.083,3.16,3.16,0,0,0,1.788-.582L89.5,81.511a3.037,3.037,0,0,0,.707-4.283M86.052,54.4a1.661,1.661,0,0,0-.5-1.289,2.524,2.524,0,0,0-1.164-.457l.042-1.58a.913.913,0,0,1,.624.333.439.439,0,0,1,0,.249v.333c0,.042,0,.083.042.083l.042.042c.042.042.042.042.083.042h.25c.042,0,.083,0,.083-.042l.042-.042c.042-.042.042-.042.042-.083l.042-.333a4.414,4.414,0,0,1,.125-.748v-.083l-.042-.083c0-.042-.042-.042-.083-.083a3.65,3.65,0,0,0-1.289-.333v-.249a.153.153,0,0,0-.042-.125l-.042-.042c-.042-.042-.042-.042-.083-.042h-.291a.153.153,0,0,0-.125.042l-.042.042c-.042.042-.042.042-.042.083v.291a2.207,2.207,0,0,0-.79.249,1.818,1.818,0,0,0-.915,1.58,1.693,1.693,0,0,0,.5,1.247,2.832,2.832,0,0,0,1.123.5L83.6,55.688a1.193,1.193,0,0,1-.832-.457.708.708,0,0,1-.042-.291v-.291a.153.153,0,0,0-.042-.125l-.042-.042c-.042-.042-.042-.042-.083-.042H82.31c-.042,0-.083,0-.083.042l-.042.042a.153.153,0,0,0-.042.125,5.248,5.248,0,0,1-.125,1.247v.083l.042.042c0,.042.042.042.083.083a4.947,4.947,0,0,0,1.5.374v.665c0,.042,0,.083.042.083l.042.042a.153.153,0,0,0,.125.042h.333a.153.153,0,0,0,.125-.042l.042-.042a.129.129,0,0,0,.042-.083v-.707a2.234,2.234,0,0,0,1.247-.624,3.533,3.533,0,0,0,.416-1.414m3.077-.665a5.148,5.148,0,0,1-5.281,4.99,5.18,5.18,0,0,1-4.99-5.281,5.149,5.149,0,0,1,5.281-4.99,5.047,5.047,0,0,1,3.036,1.123,4.845,4.845,0,0,1,1.954,4.158m-4.574.333-.042,1.58a.647.647,0,0,0,.333-.25.9.9,0,0,0,.208-.582.648.648,0,0,0-.5-.748m5.073-.333a5.595,5.595,0,1,0-5.738,5.447,5.6,5.6,0,0,0,5.738-5.447m.956.042A6.594,6.594,0,1,1,84.181,47a6.623,6.623,0,0,1,6.4,6.778m-6.861-2.661-.042,1.372a.628.628,0,0,1-.457-.665.71.71,0,0,1,.5-.707M80.106,71.032a1.21,1.21,0,0,0-.457-1.081,2.273,2.273,0,0,0-1-.374l.042-1.331a.773.773,0,0,1,.541.291v.5c0,.042,0,.042.042.083l.042.042c.042.042.042.042.083.042h.208c.042,0,.042,0,.083-.042l.042-.042c.042,0,.042-.042.042-.083l.042-.291a5.513,5.513,0,0,1,.083-.665V68l-.042-.042a.041.041,0,0,0-.042-.042,2.752,2.752,0,0,0-1.081-.291v-.208c0-.042,0-.083-.042-.083l-.042-.042c-.042,0-.042-.042-.083-.042h-.249c-.042,0-.083,0-.083.042l-.042.042c-.042.042-.042.042-.042.083v.249a2.048,2.048,0,0,0-.707.249,1.591,1.591,0,0,0-.79,1.372,1.32,1.32,0,0,0,.416,1.04,2.056,2.056,0,0,0,.956.416l-.042,1.539a.987.987,0,0,1-.707-.374.527.527,0,0,1-.042-.249v-.25c0-.042,0-.083-.042-.083l-.042-.042c-.042-.042-.042-.042-.083-.042h-.208c-.042,0-.042,0-.083.042l-.042.042c-.042.042-.042.042-.042.083a4.067,4.067,0,0,1-.125,1.081v.125c0,.042.042.042.083.083a3.478,3.478,0,0,0,1.289.333v.541c0,.042,0,.042.042.083l.042.042c.042.042.042.042.083.042h.249c.042,0,.083,0,.083-.042l.042-.042c.042-.042.042-.042.042-.083v-.582a1.917,1.917,0,0,0,1.081-.541,2.44,2.44,0,0,0,.5-1.414m2.661-.582a4.44,4.44,0,0,1-4.533,4.283,4.585,4.585,0,0,1-2.62-.956A4.395,4.395,0,0,1,73.952,70.2a4.44,4.44,0,0,1,4.533-4.283,4.585,4.585,0,0,1,2.62.956,4.332,4.332,0,0,1,1.663,3.576m-3.909.333-.042,1.331a.746.746,0,0,0,.291-.208.663.663,0,0,0,.166-.5.563.563,0,0,0-.416-.624m4.325-.291a4.794,4.794,0,1,0-4.948,4.657,4.821,4.821,0,0,0,4.948-4.657m.832,0a5.658,5.658,0,1,1-5.489-5.822,5.664,5.664,0,0,1,5.489,5.822m-5.9-2.245-.042,1.164a.537.537,0,0,1-.374-.541.563.563,0,0,1,.416-.624m-8.566-7.277a1.661,1.661,0,0,0-.5-1.289,2.344,2.344,0,0,0-1.164-.457l.042-1.58a.913.913,0,0,1,.624.333.439.439,0,0,1,0,.249v.333c0,.042,0,.083.042.083l.042.042a.129.129,0,0,0,.083.042h.249c.042,0,.083,0,.083-.042l.042-.042c.042-.042.042-.042.042-.083l.042-.333a4.41,4.41,0,0,1,.125-.748v-.083l-.042-.083c0-.042-.042-.042-.083-.083a3.65,3.65,0,0,0-1.289-.333v-.249a.153.153,0,0,0-.042-.125l-.042-.042c-.042-.042-.042-.042-.083-.042h-.291a.153.153,0,0,0-.125.042l-.042.042c-.042.042-.042.042-.042.083v.291a2.207,2.207,0,0,0-.79.249,1.818,1.818,0,0,0-.915,1.58,1.693,1.693,0,0,0,.5,1.247,2.832,2.832,0,0,0,1.123.5L67.09,62.3a1.193,1.193,0,0,1-.832-.457.708.708,0,0,1-.042-.291V61.26a.153.153,0,0,0-.042-.125l-.042-.042c-.042-.042-.042-.042-.083-.042H65.8c-.042,0-.083,0-.083.042l-.042.042a.153.153,0,0,0-.042.125,5.247,5.247,0,0,1-.125,1.247v.083l.042.042c0,.042.042.042.083.083a4.947,4.947,0,0,0,1.5.374v.665c0,.042,0,.083.042.083l.042.042a.153.153,0,0,0,.125.042h.291a.153.153,0,0,0,.125-.042l.042-.042a.129.129,0,0,0,.042-.083l.042-.707a2.234,2.234,0,0,0,1.247-.624,3.148,3.148,0,0,0,.416-1.455m3.119-.665a5.148,5.148,0,0,1-5.281,4.99,5.18,5.18,0,0,1-4.99-5.281,5.149,5.149,0,0,1,5.281-4.99,5.18,5.18,0,0,1,4.99,5.281m-4.574.374-.042,1.58a.647.647,0,0,0,.333-.249.9.9,0,0,0,.208-.582.669.669,0,0,0-.5-.749M73.12,60.3a5.6,5.6,0,0,0-5.447-5.78,5.673,5.673,0,0,0-5.738,5.489A5.595,5.595,0,1,0,73.12,60.3m1,.042a6.594,6.594,0,1,1-6.4-6.778,6.623,6.623,0,0,1,6.4,6.778m-6.9-2.661-.042,1.372a.628.628,0,0,1-.457-.665.71.71,0,0,1,.5-.707" transform="translate(-44.3 -45.496)" fill="#242342"/></g></g></svg>