<svg xmlns="http://www.w3.org/2000/svg" width="96" height="96" viewBox="0 0 96 96"><g transform="translate(-545 -2249)"><circle cx="48" cy="48" r="48" transform="translate(545 2249)" fill="#e7f9fd"/><g transform="translate(569 2273)"><rect width="48" height="48" fill="none"/><path d="M34.869,46.5H1.975A1.977,1.977,0,0,1,0,44.525V1.976A1.978,1.978,0,0,1,1.975,0H27.8l9.044,9.071V44.525A1.977,1.977,0,0,1,34.869,46.5ZM25.251,24.762h0V37.253h2.775V24.762H25.251ZM19.7,16.434h0V37.253h2.775V16.434H19.7ZM14.148,28.925h0v8.328h2.775V28.925H14.148ZM8.6,24.762h0V37.253h2.777V24.762H8.6Z" transform="translate(5.25 0.75)" fill="#242342"/></g></g></svg>