<svg xmlns="http://www.w3.org/2000/svg" width="96" height="96" viewBox="0 0 96 96"><g transform="translate(-925 -882)"><circle cx="48" cy="48" r="48" transform="translate(925 882)" fill="#e7f9fd"/><g transform="translate(388 -5508)"><rect width="48" height="48" transform="translate(561 6414)" fill="none"/><path d="M17.478,24.515a2.319,2.319,0,0,0-.418-2.493,2.351,2.351,0,0,0-2.232-.568,2.279,2.279,0,0,0-.481-2.256,2.351,2.351,0,0,0-2.232-.568,2.283,2.283,0,0,0-.481-2.248,2.519,2.519,0,0,0-3.534.095c-1.033.994-1.7,2.784-.773,3.841s1.98.41,2.784.229c-.221.8-.9,1.546-.071,2.587s1.98.41,2.784.229c-.221.8-.868,1.617-.071,2.587s2.114.457,2.982.181c-.331.86-1.049,1.791-.134,2.832s3.045.56,4.086-.426a2.477,2.477,0,0,0,.221-3.5A2.369,2.369,0,0,0,17.478,24.515Zm18.442-6.484c-7.344-7.344-3.889-3.889-7.84-7.848a2.577,2.577,0,0,0-2.753-.5c-1.1.481-2.508,1.136-3.573,1.641a5.753,5.753,0,0,1-2.406.8,4.077,4.077,0,0,1-2.153-7.549c1.633-1.128,5.387-3.124,5.387-3.124A4.713,4.713,0,0,0,18.929,0c-2.508,0-7.738,3.431-7.738,3.431a4.082,4.082,0,0,1-3.6.095L3.217,2.153s-1.688.252-3.131,12a1.353,1.353,0,0,0,.954,1.459c.71.213,4.133,1.207,4.693,1.436a4.752,4.752,0,0,1,1.144-1.814,4.51,4.51,0,0,1,6.192-.047,3.97,3.97,0,0,1,.978,1.735,3.943,3.943,0,0,1,1.68,1.025A3.852,3.852,0,0,1,16.7,19.68a3.982,3.982,0,0,1,2.713,2.926,4.076,4.076,0,0,1,1.751,1.049,4.129,4.129,0,0,1,1.081,3.573h.008c.016.024.592.663.947,1.018A1.8,1.8,0,1,0,25.752,25.7c-.024-.024-2.524-2.642-2.327-2.84s3.384,3.116,3.447,3.171a1.8,1.8,0,1,0,2.54-2.54c-.032-.032-.181-.174-.229-.229,0,0-3.155-2.816-2.918-3.053s4.165,3.415,4.173,3.415a1.774,1.774,0,0,0,2.556-2.453c-.016-.039-2.989-3.147-2.761-3.384s3.179,2.792,3.187,2.8a1.8,1.8,0,0,0,2.54-2.548A.059.059,0,0,1,35.919,18.031ZM43.184,4.338c-1.42.316-3.557.789-5.143,1.12a2.117,2.117,0,0,1-1.72-.331s-2.035-1.751-4.315-3.668C30.153-.1,29.183-.039,27.834.678,25.61,1.862,20.98,4.157,18.448,5.687a2.61,2.61,0,0,0-1.585,2.28,2.55,2.55,0,0,0,3.833,2c1.112-.536,3.3-1.459,5.1-2.406a2.155,2.155,0,0,1,2.934.394s7.052,7.012,9.039,8.913c1.286,1.238,3.06.663,3.628.592.371-.047,2.24-.489,3.518-.789C45.59,16.517,44,4.165,43.184,4.338Z" transform="translate(562.425 6423)" fill="#242342"/></g></g></svg>