<svg xmlns="http://www.w3.org/2000/svg" xmlns:xlink="http://www.w3.org/1999/xlink" width="96" height="96" viewBox="0 0 96 96"><defs><clipPath id="a"><rect width="48" height="48" fill="none"/></clipPath></defs><g transform="translate(-925 -1203)"><circle cx="48" cy="48" r="48" transform="translate(925 1203)" fill="#e7f9fd"/><g transform="translate(949 1227)" clip-path="url(#a)"><rect width="48" height="48" fill="none"/><path d="M-5503.473-45.065l-4.593-4.731-6.582.326-.157-.065,3.737-9.472a19.18,19.18,0,0,0,11.257,5.122l-3.5,8.887Zm8-8.9a19.128,19.128,0,0,0,11.1-5.512l3.923,9.946-.158.065-6.581-.335-4.592,4.731-.158.065Zm-5.721-2.269A17.049,17.049,0,0,1-5515-72.956v-.015A17.053,17.053,0,0,1-5497.961-90a17,17,0,0,1,8.375,2.2l0,.007a17.049,17.049,0,0,1,8.657,14.835,17,17,0,0,1-2.2,8.375l-.006,0a17.036,17.036,0,0,1-14.821,8.654A17.089,17.089,0,0,1-5501.191-56.239Zm3.221-2.044a14.583,14.583,0,0,0,10.385-4.3,14.6,14.6,0,0,0,4.3-10.384c0-.474-.028-.966-.074-1.46l.01-.013a14.64,14.64,0,0,0-4.23-8.915,14.827,14.827,0,0,0-3.441-2.561l-.008.009a14.714,14.714,0,0,0-6.943-1.747,14.6,14.6,0,0,0-8.069,2.411,14.749,14.749,0,0,0-2.3,1.888,14.6,14.6,0,0,0-4.3,10.393,14.575,14.575,0,0,0,4.3,10.383,14.614,14.614,0,0,0,6.622,3.819A14.789,14.789,0,0,0-5497.971-58.283Z" transform="translate(5521.75 91.5)" fill="#242342"/></g></g></svg>